<?xml version="1.0" encoding="UTF-8" standalone="no"?>
<!-- Created with Inkscape (http://www.inkscape.org/) -->

<svg
   xmlns:dc="http://purl.org/dc/elements/1.1/"
   xmlns:cc="http://creativecommons.org/ns#"
   xmlns:rdf="http://www.w3.org/1999/02/22-rdf-syntax-ns#"
   xmlns:svg="http://www.w3.org/2000/svg"
   xmlns="http://www.w3.org/2000/svg"
   xmlns:sodipodi="http://sodipodi.sourceforge.net/DTD/sodipodi-0.dtd"
   xmlns:inkscape="http://www.inkscape.org/namespaces/inkscape"
   id="svg2"
   version="1.1"
   inkscape:version="0.92.3 (2405546, 2018-03-11)"
   width="340.36456"
   height="123.32747"
   xml:space="preserve"
   sodipodi:docname="DiscountBank.svg"><metadata
     id="metadata8"><rdf:RDF><cc:Work
         rdf:about=""><dc:format>image/svg+xml</dc:format><dc:type
           rdf:resource="http://purl.org/dc/dcmitype/StillImage" /><dc:title></dc:title></cc:Work></rdf:RDF></metadata><defs
     id="defs6"><clipPath
       clipPathUnits="userSpaceOnUse"
       id="clipPath16"><path
         d="M 0,283.465 H 283.465 V 0 H 0 Z"
         id="path18"
         inkscape:connector-curvature="0" /></clipPath></defs><sodipodi:namedview
     pagecolor="#ffffff"
     bordercolor="#666666"
     borderopacity="1"
     objecttolerance="10"
     gridtolerance="10"
     guidetolerance="10"
     inkscape:pageopacity="0"
     inkscape:pageshadow="2"
     inkscape:window-width="1920"
     inkscape:window-height="1005"
     id="namedview4"
     showgrid="false"
     fit-margin-top="0"
     fit-margin-left="0"
     fit-margin-right="0"
     fit-margin-bottom="0"
     inkscape:zoom="1.2741854"
     inkscape:cx="355.04968"
     inkscape:cy="-129.26459"
     inkscape:window-x="-9"
     inkscape:window-y="-9"
     inkscape:window-maximized="1"
     inkscape:current-layer="g10" /><g
     id="g10"
     inkscape:groupmode="layer"
     inkscape:label="discont"
     transform="matrix(1.25,0,0,-1.25,-18.973987,270.49413)"><path
       inkscape:connector-curvature="0"
       id="path114"
       style="fill:#62a93b;stroke:none;stroke-width:0.45653334;stroke-linecap:butt;stroke-linejoin:miter;stroke-miterlimit:3.86400008;stroke-dasharray:none;stroke-opacity:1;fill-opacity:1"
       d="m 148.84949,135.43541 c 36.05547,0 100.61654,5.35467 129.38454,28.12694 0.25706,0.20693 0.944,0.61973 1.46026,0.34453 0.304,-0.16107 0.40854,-0.3744 0.55787,-0.68373 0.66453,-1.37494 0.90773,-2.85547 1.00907,-4.7456 0.10133,-1.86454 0.1344,-2.99734 -0.4736,-4.7616 -0.2272,-0.6592 -0.4032,-1.0112 -0.78187,-1.58827 -0.3008,-0.45653 -0.67413,-0.89813 -0.88213,-1.09013 -0.75094,-0.69014 -2.84907,-2.25814 -3.03467,-2.3968 -31.63307,-23.53174 -88.55147,-30.66774 -127.2032,-30.66774 h -1.04747 c -38.6528,0 -95.57013,7.136 -127.20213,30.66774 -0.186667,0.13866 -2.2848,1.70666 -3.035733,2.3968 -0.209067,0.192 -0.581334,0.6336 -0.882134,1.09013 -0.379733,0.57707 -0.555733,0.92907 -0.782933,1.58827 -0.608,1.76426 -0.574933,2.89706 -0.472533,4.7616 0.101333,1.89013 0.344533,3.37066 1.009066,4.7456 0.1504,0.30933 0.253867,0.52266 0.5568,0.68373 0.516267,0.2752 1.205334,-0.1376 1.460267,-0.34453 28.769067,-22.77227 93.328,-28.12694 129.3856,-28.12694 z" /><path
       inkscape:connector-curvature="0"
       id="path82"
       style="fill:#62a93b;fill-opacity:1;fill-rule:nonzero;stroke:none;stroke-width:1.06666672"
       d="m 65.954133,189.56715 v 12.90026 c 0,10.2816 -1.776,13.92747 -8.7872,13.92747 h -15.8912 V 204.14955 H 45.7632 c 2.429867,0 2.7104,-1.02827 2.7104,-6.82454 v -9.3472 c 0,-4.95466 -2.2432,-8.13226 -6.824533,-8.13226 -4.673067,0 -7.104,2.98986 -7.104,8.13226 v 28.41707 h -17.2 v -26.82773 c 0,-16.1728 9.815466,-22.15574 24.304,-22.15574 14.770133,0 24.305066,5.79627 24.305066,22.15574" /><path
       inkscape:connector-curvature="0"
       id="path86"
       style="fill:#62a93b;fill-opacity:1;fill-rule:nonzero;stroke:none;stroke-width:1.06666672"
       d="m 94.29216,180.87339 v 18.5088 c 0,12.24533 -1.3088,17.01226 -9.160533,17.01226 H 69.23936 v -12.24533 h 4.768 c 2.523733,0 2.7104,-2.6176 2.7104,-5.79627 v -12.8064 c 0,-4.29973 -0.4672,-4.67306 -1.682133,-4.67306 h -8.32 v -12.2464 H 88.58976 c 3.832533,0 5.7024,2.42986 5.7024,12.2464" /><path
       inkscape:connector-curvature="0"
       id="path90"
       style="fill:#62a93b;fill-opacity:1;fill-rule:nonzero;stroke:none;stroke-width:1.06666672"
       d="m 116.82443,168.62709 v 38.51307 c 0,5.51573 -2.80427,9.2544 -9.44214,9.2544 H 96.91296 v -12.24533 c 1.6832,0 2.429867,-0.9344 2.429867,-2.71147 v -32.81067 h 17.481603" /><path
       inkscape:connector-curvature="0"
       id="path94"
       style="fill:#62a93b;fill-opacity:1;fill-rule:evenodd;stroke:none;stroke-width:1.06666672"
       d="m 168.05941,196.29739 c 0,16.63893 -4.02026,20.09706 -13.17866,20.09706 h -35.24267 v -12.24533 h 25.6128 c 3.92533,0 4.8608,-1.02827 4.8608,-9.8144 0,-9.34827 -3.83253,-13.46133 -9.25333,-13.46133 v -12.2464 h 5.328 c 9.34826,0 21.87306,5.79626 21.87306,27.6704 m -48.04693,-44.69974 h 17.1072 v 44.33494 h -17.1072 z" /><path
       inkscape:connector-curvature="0"
       id="path98"
       style="fill:#62a93b;fill-opacity:1;fill-rule:evenodd;stroke:none;stroke-width:1.06666672"
       d="m 219.38443,189.19221 v 17.01334 c 0,8.03946 -3.45814,10.1888 -7.75787,10.1888 h -33.18613 c -4.58027,0 -7.85174,-2.336 -7.85174,-10.1888 v -17.01334 c 0,-16.9184 12.52587,-21.78026 24.58454,-21.78026 12.61973,0 24.2112,4.48746 24.2112,21.78026 m -17.29387,-1.21493 c 0,-5.2352 -2.336,-8.1312 -6.91733,-8.1312 -4.58027,0 -7.29067,2.98987 -7.29067,8.1312 v 11.21707 c 0,3.9264 0.37227,4.95466 2.80427,4.95466 h 8.69226 c 2.43094,0 2.71147,-1.02826 2.71147,-4.95466 v -11.21707" /><path
       inkscape:connector-curvature="0"
       id="path102"
       style="fill:#62a93b;fill-opacity:1;fill-rule:nonzero;stroke:none;stroke-width:1.06666672"
       d="m 241.82912,188.81877 v 18.32214 c 0,5.51466 -1.8688,9.2544 -8.50667,9.2544 h -11.30986 v -12.24534 c 1.8688,0 2.336,-0.93546 2.336,-2.71146 v -12.61974 h 17.48053" /><path
       inkscape:connector-curvature="0"
       id="path106"
       style="fill:#62a93b;fill-opacity:1;fill-rule:nonzero;stroke:none;stroke-width:1.06666672"
       d="m 287.47083,204.14944 v 12.24533 h -43.1872 v -12.24533 h 23.55626 c -2.61653,-1.68213 -5.89013,-5.98187 -5.89013,-12.90027 v -22.62186 h 17.3888 v 26.17386 c 0,4.8608 0.9344,8.13334 2.80427,9.34827 h 5.328" /><path
       inkscape:connector-curvature="0"
       id="path110"
       style="fill:#62a93b;fill-opacity:1;fill-rule:nonzero;stroke:none;stroke-width:1.06666672"
       d="m 148.84949,135.43541 c 36.05547,0 100.61654,5.35467 129.38454,28.12694 0.25706,0.20693 0.944,0.61973 1.46026,0.34453 0.304,-0.16107 0.40854,-0.3744 0.55787,-0.68373 0.66453,-1.37494 0.90773,-2.85547 1.00907,-4.7456 0.10133,-1.86454 0.1344,-2.99734 -0.4736,-4.7616 -0.2272,-0.6592 -0.4032,-1.0112 -0.78187,-1.58827 -0.3008,-0.45653 -0.67413,-0.89813 -0.88213,-1.09013 -0.75094,-0.69014 -2.84907,-2.25814 -3.03467,-2.3968 -31.63307,-23.53174 -88.55147,-30.66774 -127.2032,-30.66774 h -1.04747 c -38.6528,0 -95.57013,7.136 -127.20213,30.66774 -0.186667,0.13866 -2.2848,1.70666 -3.035733,2.3968 -0.209067,0.192 -0.581334,0.6336 -0.882134,1.09013 -0.379733,0.57707 -0.555733,0.92907 -0.782933,1.58827 -0.608,1.76426 -0.574933,2.89706 -0.472533,4.7616 0.101333,1.89013 0.344533,3.37066 1.009066,4.7456 0.1504,0.30933 0.253867,0.52266 0.5568,0.68373 0.516267,0.2752 1.205334,-0.1376 1.460267,-0.34453 28.769067,-22.77227 93.328,-28.12694 129.3856,-28.12694 z" /></g></svg>