<?xml version="1.0" encoding="UTF-8" standalone="no"?>
<!-- Created with Inkscape (http://www.inkscape.org/) -->

<svg
   xmlns:dc="http://purl.org/dc/elements/1.1/"
   xmlns:cc="http://creativecommons.org/ns#"
   xmlns:rdf="http://www.w3.org/1999/02/22-rdf-syntax-ns#"
   xmlns:svg="http://www.w3.org/2000/svg"
   xmlns="http://www.w3.org/2000/svg"
   xmlns:sodipodi="http://sodipodi.sourceforge.net/DTD/sodipodi-0.dtd"
   xmlns:inkscape="http://www.inkscape.org/namespaces/inkscape"
   id="svg2"
   version="1.1"
   inkscape:version="0.92.3 (2405546, 2018-03-11)"
   width="321.31573"
   height="91.831627"
   xml:space="preserve"
   sodipodi:docname="BankLeumiLogo.svg"><metadata
     id="metadata8"><rdf:RDF><cc:Work
         rdf:about=""><dc:format>image/svg+xml</dc:format><dc:type
           rdf:resource="http://purl.org/dc/dcmitype/StillImage" /><dc:title></dc:title></cc:Work></rdf:RDF></metadata><defs
     id="defs6"><clipPath
       clipPathUnits="userSpaceOnUse"
       id="clipPath20"><path
         d="m 0,283.465 283.465,0 L 283.465,0 0,0 0,283.465 z"
         id="path22"
         inkscape:connector-curvature="0" /></clipPath></defs><sodipodi:namedview
     pagecolor="#ffffff"
     bordercolor="#666666"
     borderopacity="1"
     objecttolerance="10"
     gridtolerance="10"
     guidetolerance="10"
     inkscape:pageopacity="0"
     inkscape:pageshadow="2"
     inkscape:window-width="1920"
     inkscape:window-height="1001"
     id="namedview4"
     showgrid="false"
     fit-margin-top="0"
     fit-margin-left="0"
     fit-margin-right="0"
     fit-margin-bottom="0"
     inkscape:zoom="1.9435711"
     inkscape:cx="306.72397"
     inkscape:cy="-15.784358"
     inkscape:window-x="-9"
     inkscape:window-y="-9"
     inkscape:window-maximized="1"
     inkscape:current-layer="g10" /><g
     id="g10"
     inkscape:groupmode="layer"
     inkscape:label="BANK LEUMI"
     transform="matrix(1.25,0,0,-1.25,-16.508,223.08163)"><path
       d="m 13.207,135.323 257.051,0 0,-30.323 -257.051,0 0,30.323 z"
       style="fill:#2957a5;fill-opacity:1;fill-rule:nonzero;stroke:none"
       id="path14"
       inkscape:connector-curvature="0" /><path
       inkscape:connector-curvature="0"
       id="path222"
       style="fill:#00b0f0;fill-opacity:1;fill-rule:evenodd;stroke:none"
       d="m 13.207,138.5277 v 39.9371 h 257.051 v -39.9371 h -7.584 -87.621 -43.777 -16.228 c -11.178,0 -15.162,7.351 -27.667,7.351 -12.503,0 -16.211142,-7.40802 -27.666,-7.351 h -16.07 z"
       sodipodi:nodetypes="cccccccssscc" /><g
       id="g1096"><path
         d="m 181,122.8994 c 0,1.065 -0.632,2.371 -1.644,2.991 -0.96,0.595 -1.945,0.842 -3.64,0.842 -5.435,0 -7.989,-4.635 -7.989,-8.428 0,-3.197 1.895,-7.385 7.155,-7.385 2.554,0 4.399,1.263 6.068,3.172 l -0.936,0.967 c -1.061,-1.166 -2.629,-2.207 -4.298,-2.207 -1.694,0 -3.261,1.183 -3.818,3.785 7.358,1.164 9.102,4.033 9.102,6.263 m -3.615,0.064 c 0,-2.527 -1.997,-3.685 -5.689,-4.751 -0.025,0.298 -0.025,0.414 -0.025,0.737 0,3.89 1.922,6.171 3.641,6.171 1.239,0 2.073,-0.768 2.073,-2.157"
         style="fill:#ffffff;fill-opacity:1;fill-rule:evenodd;stroke:none"
         id="path1058"
         inkscape:connector-curvature="0" /><path
         inkscape:connector-curvature="0"
         id="path1060"
         style="fill:#ffffff;fill-opacity:1;fill-rule:nonzero;stroke:none"
         d="m 230.568,132.136 3.792,0 0,-3.062 -3.792,0 0,3.062 z" /><path
         inkscape:connector-curvature="0"
         id="path1062"
         style="fill:#ffffff;fill-opacity:1;fill-rule:nonzero;stroke:none"
         d="m 161.065,132.136 3.792,0 0,-20.969 -3.792,0 0,20.969 z" /><path
         d="m 194.583,111.167 0,7.313 c -1.062,-2.604 -4.702,-7.561 -8.344,-7.561 -1.844,0 -2.503,0.967 -2.503,2.875 l 0,12.691 3.793,0 0,-11.444 c 0,-0.446 0.253,-0.768 0.683,-0.768 1.947,0 6.371,5.8 6.371,9.666 l 0,2.546 3.792,0 0,-15.318 -3.792,0 z"
         style="fill:#ffffff;fill-opacity:1;fill-rule:nonzero;stroke:none"
         id="path1066"
         inkscape:connector-curvature="0" /><path
         d="m 222.9668,111.167 0,11.443 c 0,0.62 -0.354,0.769 -0.683,0.769 -1.946,0 -5.916,-5.652 -5.916,-9.519 l 0,-2.693 -3.793,0 0,11.443 c 0,0.62 -0.353,0.769 -0.682,0.769 -1.947,0 -5.915,-5.652 -5.915,-9.519 l 0,-2.693 -3.794,0 0,15.318 3.794,0 0,-7.064 c 1.036,2.603 4.221,7.311 7.887,7.311 1.972,0 2.503,-0.917 2.503,-2.874 l 0,-4.437 c 1.061,2.627 4.222,7.311 7.888,7.311 1.973,0 2.504,-0.917 2.504,-2.874 l 0,-12.691 -3.793,0 z"
         style="fill:#ffffff;fill-opacity:1;fill-rule:nonzero;stroke:none"
         id="path1070"
         inkscape:connector-curvature="0" /><path
         inkscape:connector-curvature="0"
         id="path1072"
         style="fill:#ffffff;fill-opacity:1;fill-rule:nonzero;stroke:none"
         d="m 230.568,126.485 3.792,0 0,-15.318 -3.792,0 0,15.318 z" /><path
         d="m 204.248,154.5405 -4.746,6.501 5.703,0.006 6.204,-8.599 c 0,0 0.094,0.057 0.329,0.431 0.531,0.928 0.459,2.085 0.459,3.122 l 0,5.054 4.777,-0.005 0,-2.417 c 0,-2.534 -0.343,-4.443 -2.132,-6.01 -0.574,-0.481 -1.284,-0.918 -2.059,-1.294 l -0.403,-0.21 5.27,-7.156 -5.695,-0.004 -6.604,9.161 c 0,0 -0.054,0.004 -0.237,-0.263 -0.601,-0.883 -0.497,-2.016 -0.497,-3.055 l 0,-5.843 -4.833,0 0,3.207 c 0,2.535 0.395,4.444 2.183,6.01 0.575,0.482 1.231,0.866 2.007,1.243 l 0.274,0.121 z"
         style="fill:#ffffff;fill-opacity:1;fill-rule:evenodd;stroke:none"
         id="path1076"
         inkscape:connector-curvature="0" /><path
         d="m 161.1113,150.3516 -0.011,10.703 4.846,0 -0.002,-9.102 c 0,0 -1.338,-0.61 -2.459,-0.996 -1.122,-0.386 -2.374,-0.605 -2.374,-0.605"
         style="fill:#ffffff;fill-opacity:1;fill-rule:evenodd;stroke:none"
         id="path1080"
         inkscape:connector-curvature="0" /><path
         d="m 180.1504,143.6895 c -0.931,0 -1.5,0.036 -1.909,0.089 -0.187,0.024 -0.346,0.049 -0.478,0.078 l 0.26,1.677 c 0.183,-0.036 0.349,-0.045 0.581,-0.045 0.724,0 1.39,0.2 1.921,0.704 1.206,0.999 1.676,3.107 1.676,6.27 0,3.157 -0.581,5.233 -1.727,6.223 -0.449,0.387 -0.986,0.583 -1.589,0.583 -0.564,0 -1.047,-0.167 -1.491,-0.551 -1.116,-1.006 -1.784,-2.728 -2.198,-5.985 l -0.844,-8.772 -5.035,0 0.855,8.09 c 0.301,2.514 0.638,4.13 2.475,5.678 0.578,0.488 1.008,0.809 1.552,1.125 l 0.105,0.06 0.001,0.35 -4.644,0 c 0,0 0.002,1.791 0,1.791 l 10.447,0.001 c 2.047,0 3.631,-0.516 4.813,-1.537 1.477,-1.309 2.333,-3.555 2.333,-6.948 0,-3.531 -0.938,-5.928 -2.464,-7.313 -1.144,-1.021 -2.728,-1.568 -4.64,-1.568"
         style="fill:#ffffff;fill-opacity:1;fill-rule:evenodd;stroke:none"
         id="path1084"
         inkscape:connector-curvature="0" /><path
         d="m 191.0684,161.0552 4.908,0 0.003,-17.096 -4.918,10e-4 0.007,17.095 z"
         style="fill:#ffffff;fill-opacity:1;fill-rule:evenodd;stroke:none"
         id="path1088"
         inkscape:connector-curvature="0" /><path
         d="m 223.6191,143.7539 c 0.019,-10e-4 0.019,1.72 -0.002,1.744 0.89,0.208 1.845,0.649 2.631,1.293 1.871,1.536 3.282,4.16 3.282,7.694 0,2.059 -0.476,3.148 -1.293,3.897 -0.826,0.759 -1.982,0.925 -2.857,0.925 l -3.692,0 c -0.848,0 -1.352,0.072 -1.658,0.364 -0.265,0.254 -0.388,0.614 -0.388,1.065 l 0,4.762 4.881,0 -0.001,-3.624 c 0,-0.936 0.897,-0.819 1.41,-0.819 l 2.509,0 c 1.983,0 3.363,-0.42 4.328,-1.191 1.283,-1.012 1.857,-2.729 1.857,-5.271 0,-3.246 -1.314,-5.993 -3.543,-7.92 -1.89,-1.632 -4.483,-2.673 -7.464,-2.919"
         style="fill:#ffffff;fill-opacity:1;fill-rule:evenodd;stroke:none"
         id="path1092"
         inkscape:connector-curvature="0" /></g></g></svg>